<svg style="max-width: 100%; max-height: 100%;" viewBox="0 0 91 91" enable-background="new 0 0 91 91" id="Layer_1" version="1.1" xml:space="preserve" xmlns="http://www.w3.org/2000/svg" xmlns:xlink="http://www.w3.org/1999/xlink"><g id="SVGRepo_bgCarrier" stroke-width="0"></g><g id="SVGRepo_tracerCarrier" stroke-linecap="round" stroke-linejoin="round"></g><g id="SVGRepo_iconCarrier"> <g> <g> <path d="M51.895,63.339c0-1.01-0.098-1.996-0.244-2.961l7.139-4.129l-7.402-12.813l-7.131,4.119 c-1.539-1.232-3.271-2.229-5.135-2.969v-8.234H24.324v8.234c-1.789,0.709-3.455,1.668-4.955,2.828l-7.088-4.203L4.744,55.948 l7.084,4.197c-0.164,1.041-0.273,2.105-0.273,3.193c0,1.008,0.094,1.996,0.24,2.965l-7.137,4.123l7.398,12.813l7.133-4.117 c1.539,1.229,3.275,2.229,5.135,2.969v8.232h14.797v-8.232c1.791-0.707,3.455-1.662,4.955-2.832l7.084,4.203l7.549-12.734 l-7.092-4.199C51.783,65.489,51.895,64.425,51.895,63.339 M31.72,73.188c-5.43,0-9.85-4.418-9.85-9.85 c0-5.434,4.42-9.854,9.85-9.854c5.434,0,9.854,4.42,9.854,9.854C41.574,68.771,37.154,73.188,31.72,73.188"></path> <path d="M81.404,21.101c0-0.77-0.076-1.516-0.188-2.252l5.426-3.127l-5.621-9.74l-5.42,3.125 c-1.172-0.928-2.482-1.691-3.898-2.25V0.603h-11.25v6.254c-1.359,0.537-2.623,1.262-3.754,2.148l-5.389-3.191l-5.727,9.67 l5.385,3.188c-0.127,0.797-0.213,1.604-0.213,2.43c0,0.766,0.076,1.514,0.186,2.25l-5.424,3.131l5.624,9.742l5.416-3.131 c1.176,0.932,2.488,1.689,3.896,2.25v6.254h11.25v-6.254c1.359-0.541,2.625-1.264,3.754-2.148l5.393,3.189l5.73-9.671 l-5.389-3.186C81.322,22.732,81.404,21.929,81.404,21.101 M66.08,29.701c-4.74,0-8.598-3.861-8.598-8.6 c0-4.744,3.857-8.598,8.598-8.598c4.742,0,8.602,3.854,8.602,8.598C74.682,25.839,70.822,29.701,66.08,29.701"></path> </g> </g> </g></svg>