<svg style="max-width: 100%; max-height: 100%;" version="1.1" id="Capa_1" xmlns="http://www.w3.org/2000/svg" xmlns:xlink="http://www.w3.org/1999/xlink" viewBox="0 0 548.367 548.367" xml:space="preserve"><g id="SVGRepo_bgCarrier" stroke-width="0"></g><g id="SVGRepo_tracerCarrier" stroke-linecap="round" stroke-linejoin="round"></g><g id="SVGRepo_iconCarrier"> <g> <g> <path d="M406.304,0H142.084c-16.449,0-29.931,13.486-29.931,29.909v488.548 c0,16.423,13.486,29.909,29.931,29.909h264.219c16.423,0,29.909-13.46,29.909-29.909V29.909C436.213,13.486,422.753,0,406.304,0z M274.173,518.414c-15.13,0-27.417-12.283-27.417-27.417c0-15.134,12.283-27.417,27.417-27.417 c15.13,0,27.417,12.283,27.417,27.417C301.59,506.131,289.302,518.414,274.173,518.414z M401.925,433.697H146.463V67.277h255.463 V433.697z M254.829,176.136h-80.386v-65.443h80.386V176.136z M363.264,176.136h-80.408v-65.443h80.408V176.136z M254.829,281.655 h-80.386v-65.417h80.386V281.655z M363.264,281.655h-80.408v-65.417h80.408V281.655z M254.829,389.221h-80.386v-65.417h80.386 V389.221z M363.264,389.221h-80.408v-65.417h80.408V389.221z"></path> </g> <g> </g> <g> </g> <g> </g> <g> </g> <g> </g> <g> </g> <g> </g> <g> </g> <g> </g> <g> </g> <g> </g> <g> </g> <g> </g> <g> </g> <g> </g> </g> </g></svg>